<svg width="100" height="100" viewBox="0 0 100 100" fill="none" xmlns="http://www.w3.org/2000/svg">
<g clip-path="url(#clip0_158_792)">
<path d="M30.6821 35.4044C49.1803 27.1065 67.9552 24.7048 82.372 27.6732C80.7597 26.9378 79.1338 25.6763 78.1421 23.8952C75.4841 19.1054 70.276 16.245 64.3122 16.9061C61.8566 17.1827 59.4279 16.562 57.8291 15.4759C55.5893 13.9512 53.0595 13 49.9966 13C46.9338 13 44.404 13.9512 42.1642 15.4759C40.5654 16.562 38.1367 17.1827 35.6878 16.9061C29.7241 16.245 24.516 19.0986 21.8579 23.8952C20.6773 26.0338 18.5927 27.4033 16.6835 28.0509C11.9409 29.6633 8.02807 33.9944 7.50186 39.6343C7.25225 42.2923 5.69386 44.3904 4.52 45.5575C1.33576 48.7418 0 52.4725 0 56.2841V56.473C7.79195 48.364 18.2892 40.9633 30.6753 35.4111L30.6821 35.4044Z" fill="url(#paint0_linear_158_792)"/>
<path d="M47.0081 46.2794C62.8213 39.1891 78.8302 36.4029 92.1541 37.5969C91.0073 32.9757 87.5464 29.5284 83.3165 28.051C83.0062 27.943 82.6891 27.8216 82.372 27.6799C67.9552 24.7116 49.1736 27.1132 30.6821 35.4111C18.2959 40.9566 7.79871 48.364 0.00675964 56.4663C0.101208 63.9614 5.69387 70.1275 12.9394 71.1259C20.9539 61.553 32.7262 52.6816 47.0081 46.2794Z" fill="url(#paint1_linear_158_792)"/>
<path d="M95.48 45.5575C94.3129 44.3904 92.7478 42.2923 92.4982 39.6343C92.4307 38.9327 92.316 38.2513 92.1541 37.6036C78.8369 36.4096 62.8213 39.1958 47.008 46.2861C32.7194 52.6883 20.9471 61.5664 12.9393 71.1326C13.6072 71.2271 14.2953 71.2743 14.9902 71.2743H36.5041C38.5482 71.2743 40.2078 72.9744 40.2078 75.0117V75.882C40.2078 79.3159 36.8076 79.7814 36.8076 79.7814L19.3145 82.7902C18.6939 82.8914 18.1609 83.3164 18.1609 83.9303V86.0824H81.8458V83.9303C81.8458 83.3164 81.3128 82.8914 80.6922 82.7902L63.1923 79.7814C63.1923 79.7814 59.799 79.3226 59.799 75.882V75.0117C59.799 72.9676 61.4518 71.2743 63.4959 71.2743H85.0165C93.2942 71.2743 100 64.5685 100 56.2908C100 52.4792 98.671 48.7485 95.48 45.5643V45.5575Z" fill="#359339"/>
</g>
<defs>
<linearGradient id="paint0_linear_158_792" x1="62.6189" y1="10.0249" x2="15.1049" y2="68.6973" gradientUnits="userSpaceOnUse">
<stop stop-color="#70B02F"/>
<stop offset="0.63" stop-color="#479C35"/>
<stop offset="1" stop-color="#359339"/>
</linearGradient>
<linearGradient id="paint1_linear_158_792" x1="77.508" y1="8.21691" x2="20.8527" y2="78.1825" gradientUnits="userSpaceOnUse">
<stop stop-color="#48A537"/>
<stop offset="0.53" stop-color="#3A9738"/>
<stop offset="1" stop-color="#359339"/>
</linearGradient>
<clipPath id="clip0_158_792">
<rect width="100" height="100" fill="white"/>
</clipPath>
</defs>
</svg>
