<svg width="150" height="28" viewBox="0 0 150 28" fill="none" xmlns="http://www.w3.org/2000/svg">
<g clip-path="url(#clip0_1596_3077)">
<path d="M70.1199 4.87305H51.2236C50.582 4.87305 50.0557 5.38491 50.0557 6.02086V22.7573C50.0557 23.3906 50.5742 23.9077 51.2131 23.9077H70.1121C70.7562 23.9077 71.2747 23.3958 71.2747 22.7624V6.02345C71.2747 5.39008 70.7589 4.87305 70.1173 4.87305H70.1199ZM63.8534 6.27162H65.4822C65.566 6.69818 65.6839 7.3574 65.807 8.1769H63.8901C63.8403 7.29535 63.8456 6.63096 63.8534 6.27162ZM52.7005 6.27162H61.7873C61.7978 6.63096 61.8292 7.29794 61.9156 8.1769H52.7005V6.27162ZM68.6351 22.5091H52.6953L52.7005 9.5884H62.0806C62.3687 11.685 62.9395 14.4046 64.0603 16.9329C63.094 18.3159 61.9444 19.562 60.6089 20.4642C60.4911 20.5392 60.5775 20.6607 60.5775 20.6607L61.0043 21.4699C61.0043 21.4699 61.0698 21.6301 61.2033 21.5319C62.6017 20.7486 63.7958 19.6732 64.8223 18.4607C65.5111 19.6887 66.3595 20.8184 67.3991 21.7542C67.5039 21.8757 67.6112 21.7775 67.6112 21.7775L68.2554 21.0252C68.2554 21.0252 68.3418 20.958 68.2423 20.8701C67.2499 19.7119 66.4852 18.409 65.8881 17.0699C66.6188 16.0203 67.2472 14.9113 67.7867 13.8255C67.8809 13.6471 67.7186 13.5928 67.7186 13.5928L66.3595 13.0499C66.3595 13.0499 66.2076 12.9879 66.15 13.1456C65.862 13.8229 65.532 14.5054 65.1602 15.1801C64.4976 13.174 64.1651 11.1964 64.0001 9.59099H67.4305C67.4305 9.59099 67.9202 9.59099 67.8967 8.9964C67.7003 7.93389 67.5039 6.87397 67.3913 6.2768H68.6377L68.6325 22.5117L68.6351 22.5091ZM61.3893 18.4995V17.5145C61.3893 17.3465 61.2321 17.3879 61.2321 17.3879C58.5637 18.1453 55.3794 18.4064 53.9261 18.4426H53.9182C53.7951 18.4426 53.6956 18.5383 53.6956 18.6572V20.2341C53.6956 20.3505 53.7951 20.4487 53.9156 20.4487H53.9182H53.9313C53.9313 20.4487 53.9313 20.4487 53.9339 20.4487C55.5706 20.3815 59.0927 19.6473 61.2557 18.696C61.2557 18.696 61.3893 18.6443 61.3893 18.5021V18.4995ZM54.8583 16.39H60.2318C60.8708 16.39 61.3919 15.8781 61.3919 15.2448V11.9668C61.3919 11.3308 60.8734 10.8215 60.2318 10.8189H54.8609C54.2194 10.8189 53.6982 11.3308 53.6982 11.9642V15.2422C53.6982 15.8781 54.2167 16.39 54.8583 16.39ZM56.2645 12.0185H58.8256V15.1853H56.2619V12.021L56.2645 12.0185Z" fill="#2C1710"/>
<path d="M148.811 9.76937H130.247C130.095 9.76937 129.972 9.8857 129.972 10.0279V10.8603C129.972 11.0077 130.095 11.1292 130.247 11.1292H148.009L147.549 12.9284C147.549 13.0784 147.666 13.1999 147.813 13.1999H149.086C149.277 13.1999 149.279 13.0861 149.342 12.9284C149.342 12.9284 149.827 11.4678 149.96 10.9585C150.081 10.4984 149.984 9.76678 148.811 9.76678V9.76937ZM137.118 18.1169H131.795C131.156 18.1169 130.635 18.6288 130.635 19.2621V21.7335C130.635 22.3695 131.153 22.8788 131.795 22.8788H137.116C137.755 22.8788 138.276 22.3695 138.276 21.7335V19.2595C138.276 18.6262 137.757 18.1143 137.116 18.1117L137.118 18.1169ZM135.712 21.6793H133.198V19.3216H135.712V21.6793ZM130.223 6.97738H137.967V7.69348H131.863C131.745 7.69348 131.648 7.78913 131.648 7.90546V8.83871C131.648 8.95762 131.745 9.05069 131.863 9.05069H146.815C146.936 9.05069 147.03 8.95504 147.03 8.83871V7.90546C147.03 7.78654 146.936 7.69348 146.815 7.69348H140.711V6.97738H148.455C148.572 6.97738 148.669 6.88173 148.669 6.7654V5.83215C148.669 5.71582 148.572 5.61758 148.455 5.61758H140.711V4.95836C140.711 4.80842 140.596 4.68692 140.447 4.68692H138.231C138.082 4.68692 137.964 4.80842 137.964 4.95836V5.61758H130.221C130.103 5.61758 130.006 5.71582 130.006 5.83215V6.7654C130.006 6.88173 130.103 6.97738 130.221 6.97738H130.223ZM130.852 13.9186C130.734 13.9186 130.637 14.0142 130.637 14.1331V15.069C130.637 15.1853 130.734 15.2835 130.852 15.2835H147.829C147.947 15.2835 148.046 15.1879 148.046 15.069V14.1331C148.046 14.0142 147.949 13.9186 147.829 13.9186H140.711V13.2051H146.815C146.936 13.2051 147.03 13.1094 147.03 12.9931V12.0598C147.03 11.9409 146.936 11.8453 146.815 11.8453H131.863C131.745 11.8453 131.648 11.9409 131.648 12.0598V12.9931C131.648 13.1094 131.745 13.2051 131.863 13.2051H137.964V13.9186H130.849H130.852ZM149.654 15.997H129.014C128.896 15.997 128.799 16.0927 128.799 16.209V17.1397C128.799 17.2586 128.896 17.3543 129.014 17.3543H144.393V18.1143H139.258C139.137 18.1143 139.04 18.2125 139.04 18.3289V19.2621C139.04 19.3785 139.137 19.4741 139.258 19.4741H140.792L141.093 21.4802C141.093 21.5888 141.193 21.6767 141.316 21.6767H142.903C142.976 21.6767 143.034 21.6276 143.034 21.5655L142.463 19.4741H144.393V21.6043C144.38 22.1808 144.28 22.4936 143.319 22.4936H142.775C142.707 22.4936 142.696 22.5375 142.693 22.5582V23.5742C142.693 23.7552 142.843 23.8999 143.026 23.8999H144.029C146.31 23.8999 147.033 23.5949 147.035 21.6379V19.4715H148.452C148.572 19.4715 148.669 19.3759 148.669 19.2595V18.3263C148.669 18.21 148.572 18.1117 148.452 18.1117H147.035V17.3517H149.657C149.774 17.3517 149.871 17.256 149.871 17.1371V16.2064C149.871 16.0875 149.772 15.9945 149.657 15.9945L149.654 15.997Z" fill="#2C1710"/>
<path d="M124.007 22.8684L123.297 23.7603C123.297 23.7603 123.148 23.9878 122.925 23.8792C122.923 23.8792 122.917 23.8766 122.912 23.8715C117.227 21.5862 114.577 16.7778 113.343 12.5769C112.115 16.7778 109.463 21.5836 103.78 23.8715C103.78 23.8715 103.77 23.8741 103.764 23.8766C103.542 23.9852 103.395 23.7577 103.395 23.7577L102.688 22.8658C102.688 22.8658 102.565 22.6849 102.733 22.5815C103.131 22.3798 103.636 22.1084 104.047 21.8602C111.657 17.0518 111.869 6.66198 111.859 5.16775C111.859 5.06693 111.94 4.98679 112.039 4.98679H114.653C114.752 4.98679 114.833 5.06693 114.833 5.16775C114.823 6.66198 115.038 17.0518 122.65 21.8602C123.056 22.1084 123.564 22.3824 123.962 22.5815C124.132 22.6849 124.007 22.8658 124.007 22.8658V22.8684Z" fill="#2C1710"/>
<path d="M87.2802 15.1284H86.0651C85.9184 15.1284 85.798 15.2473 85.798 15.3895V21.612C85.7823 22.1859 85.6854 22.5013 84.7296 22.5013H84.1796C84.0906 22.5013 84.0985 22.5789 84.0985 22.5789V23.5845C84.0985 23.7681 84.2477 23.9102 84.4284 23.9102H85.4314C87.7122 23.9128 88.4376 23.6052 88.4376 21.6508V16.2788C88.4376 15.648 87.9191 15.131 87.2775 15.131L87.2802 15.1284ZM97.5872 16.695C96.2674 16.0798 94.7669 15.1491 93.654 14.0685H97.5899C97.7077 14.0685 97.8046 13.9728 97.8046 13.8539V12.7061C97.8046 12.5872 97.7077 12.4941 97.5899 12.4941H84.143C84.6196 11.8918 85.0569 11.2791 85.4523 10.6793H95.0497C95.1676 10.6793 95.2671 10.5837 95.2671 10.4648V9.31954C95.2671 9.20062 95.1702 9.10497 95.0497 9.10497H86.4212C86.7957 8.45609 87.1152 7.84082 87.3823 7.29276H96.82C96.9404 7.29276 97.0347 7.19711 97.0347 7.07819V5.93296C97.0347 5.81663 96.9404 5.72098 96.82 5.72098H88.0867C88.1784 5.4909 88.2543 5.29442 88.3041 5.14965C88.3774 4.93508 88.3669 4.77997 88.126 4.72051C87.6127 4.61194 86.5679 4.40254 86.2615 4.3224C85.853 4.22158 85.7823 4.62745 85.7823 4.62745L85.6121 5.16775C85.5571 5.33579 85.4916 5.52192 85.4183 5.72098H77.6277C77.5099 5.72098 77.413 5.81663 77.413 5.93296V7.07819C77.413 7.19711 77.5099 7.29276 77.6277 7.29276H84.7688C84.5122 7.8615 84.2111 8.4716 83.8706 9.10497H79.3639C79.2461 9.10497 79.1492 9.20062 79.1492 9.31954V10.4648C79.1492 10.5837 79.2461 10.6793 79.3639 10.6793H82.9489C82.5613 11.2894 82.1397 11.9021 81.6788 12.4941H76.7871C76.6693 12.4941 76.5724 12.5872 76.5724 12.7061V13.8539C76.5724 13.9728 76.6693 14.0685 76.7871 14.0685H80.3171C79.2723 15.1439 78.0886 16.0746 76.7714 16.6899C76.4284 16.8036 76.5934 17.1035 76.5934 17.1035L76.8474 17.7162C76.8474 17.7162 76.9338 17.9669 77.2402 17.8558C78.0703 17.5585 78.8533 17.1681 79.5917 16.708C81.3096 17.1319 83.3652 18.0471 83.8785 18.2591C84.0382 18.3392 84.1063 18.2125 84.1063 18.2125L84.7296 16.9199C84.7296 16.9199 84.8343 16.7545 84.6615 16.6795C83.944 16.3719 82.3309 15.9169 81.0791 15.6429C81.6814 15.1543 82.2497 14.6243 82.7787 14.0685H91.2055C91.7109 14.5907 92.287 15.0871 92.9024 15.5524C91.8995 16.0177 90.2759 16.3719 89.3751 16.4727C89.2572 16.4856 89.2101 16.5632 89.2442 16.695C89.417 17.2095 89.472 17.6128 89.6448 18.122C89.7024 18.2927 89.781 18.2901 89.8962 18.2616C90.4985 18.1738 93.0962 17.2147 94.2301 16.4598C95.1623 17.0311 96.1444 17.5119 97.1211 17.8635C97.4249 17.9773 97.5139 17.7239 97.5139 17.7239L97.7679 17.1112C97.7679 17.1112 97.9329 16.8114 97.5899 16.6976L97.5872 16.695ZM84.9574 20.2212C84.8919 19.7636 84.8788 19.8205 84.7846 19.3578C84.7793 19.2854 84.6955 19.1975 84.5724 19.2466C82.4251 20.3453 80.2935 20.8934 77.9656 21.5293C77.8268 21.5784 77.7849 21.6741 77.8425 21.7982C78.0336 22.1989 78.3531 22.8969 78.4893 23.1942C78.539 23.295 78.6831 23.3751 78.848 23.3157C80.744 22.6823 83.1243 21.4931 84.8579 20.5056C84.9731 20.4229 84.9757 20.3479 84.9574 20.2212ZM96.0789 21.6172C94.1437 20.7201 91.8864 19.9394 89.87 19.4844C89.6789 19.4224 89.6474 19.5646 89.6474 19.5646L89.2546 20.4048C89.2546 20.4048 89.1656 20.5805 89.3411 20.6452C91.2815 21.4776 92.9836 22.1523 94.8062 23.2252C94.9921 23.3053 95.2173 23.2976 95.3457 23.1269C95.6835 22.6383 95.8223 22.4108 96.1627 21.9171C96.2308 21.8111 96.1941 21.6844 96.0815 21.6198L96.0789 21.6172Z" fill="#2C1710"/>
<path d="M11.9073 8.58536C19.0877 5.40559 26.3754 4.48527 31.9715 5.62275C31.3457 5.34097 30.7146 4.85754 30.3296 4.17505C29.2979 2.33958 27.2762 1.24347 24.9613 1.49681C24.0081 1.60281 23.0654 1.36497 22.4448 0.948758C21.5754 0.364509 20.5934 0 19.4045 0C18.2156 0 17.2336 0.364509 16.3642 0.948758C15.7436 1.36497 14.8009 1.60281 13.8503 1.49681C11.5354 1.24347 9.5138 2.337 8.48205 4.17505C8.02378 4.99455 7.21461 5.51934 6.47353 5.76752C4.6326 6.38537 3.11378 8.04506 2.90952 10.2063C2.81263 11.2248 2.20772 12.0288 1.75207 12.476C0.516055 13.6962 -0.00244141 15.1258 -0.00244141 16.5865V16.6588C3.02212 13.5515 7.09677 10.7155 11.9046 8.58794L11.9073 8.58536Z" fill="url(#paint0_linear_1596_3077)"/>
<path d="M18.2443 12.7526C24.3824 10.0356 30.5965 8.96795 35.7684 9.42552C35.3232 7.65468 33.9799 6.33366 32.3379 5.76751C32.2175 5.72614 32.0944 5.67961 31.9713 5.62532C26.3752 4.48785 19.0849 5.40817 11.9071 8.58793C7.09921 10.7129 3.02456 13.5515 0 16.6563C0.0366614 19.5284 2.20754 21.8912 5.01999 22.2738C8.13097 18.6055 12.7005 15.206 18.2443 12.7526Z" fill="url(#paint1_linear_1596_3077)"/>
<path d="M37.0594 12.476C36.6064 12.0288 35.9989 11.2248 35.902 10.2063C35.8758 9.93741 35.8313 9.67631 35.7684 9.42813C30.5992 8.97056 24.3825 10.0382 18.2443 12.7552C12.698 15.2086 8.12838 18.6107 5.02002 22.2764C5.27927 22.3126 5.54637 22.3307 5.81609 22.3307H14.167C14.9605 22.3307 15.6047 22.9822 15.6047 23.7629V24.0964C15.6047 25.4123 14.2849 25.5906 14.2849 25.5906L7.49466 26.7436C7.25374 26.7824 7.04687 26.9453 7.04687 27.1805V28.0052H31.7671V27.1805C31.7671 26.9453 31.5602 26.7824 31.3193 26.7436L24.5265 25.5906C24.5265 25.5906 23.2093 25.4148 23.2093 24.0964V23.7629C23.2093 22.9796 23.8509 22.3307 24.6443 22.3307H32.9979C36.211 22.3307 38.814 19.7611 38.814 16.5891C38.814 15.1284 38.2981 13.6988 37.0594 12.4786V12.476Z" fill="#359339"/>
</g>
<defs>
<linearGradient id="paint0_linear_1596_3077" x1="24.304" y1="-1.14006" x2="6.14678" y2="21.5718" gradientUnits="userSpaceOnUse">
<stop stop-color="#70B02F"/>
<stop offset="0.63" stop-color="#479C35"/>
<stop offset="1" stop-color="#359339"/>
</linearGradient>
<linearGradient id="paint1_linear_1596_3077" x1="30.0833" y1="-1.8329" x2="8.43275" y2="25.2506" gradientUnits="userSpaceOnUse">
<stop stop-color="#48A537"/>
<stop offset="0.53" stop-color="#3A9738"/>
<stop offset="1" stop-color="#359339"/>
</linearGradient>
<clipPath id="clip0_1596_3077">
<rect width="150" height="28" fill="white"/>
</clipPath>
</defs>
</svg>
