<svg xmlns="http://www.w3.org/2000/svg" width="401" height="689" viewBox="0 0 401 689" fill="none">
  <g opacity="0.6" filter="url(#filter0_f_21_3422)">
    <path d="M369.148 202.442C403.098 191.154 416.994 220.777 404.536 254.77C399.07 271.279 391.15 286.371 381.15 299.339C371.169 311.145 365.414 316.331 375.424 333.582C382.007 339.751 383.878 349.099 389.491 355.847C407.347 377.655 422.527 420.47 395.726 436.459C372.466 447.682 342.098 417.402 322.366 441.507C304.951 461.392 290.731 491.695 261.642 488.241C216.42 485.604 187.365 418.428 205.444 374.755C219.059 340.779 254.24 342.714 281.473 333.678C297.55 330.24 288.395 305.218 293.201 291.579C301.264 247.448 331.368 211.684 369.145 202.443L369.148 202.442Z" fill="url(#paint0_linear_21_3422)"/>
    <path d="M365.848 212.574C398.262 203.243 410.418 229.539 399.144 261.632C393.727 277.044 386.764 291.516 377.052 303.478C367.882 314.778 359.94 320.989 371.618 335.614C376.904 342.237 379.595 350.141 384.851 356.488C401.735 376.863 416.553 418.206 390.637 432.116C369.187 443.629 340.486 414.611 321.484 436.942C305.359 455.893 291.694 483.253 264.194 480.865C221.665 477.174 194.498 415.547 211.355 374.451C224.41 342.628 256.957 342.911 283.064 335.814C298.021 331.748 290.649 309.422 294.168 296.3C305.074 255.618 330.614 222.717 365.851 212.574L365.848 212.574Z" fill="url(#paint1_linear_21_3422)"/>
    <path d="M362.548 222.707C392.997 213.944 404.381 238.491 393.748 268.492C388.643 282.896 382.081 296.429 372.947 307.616C364.321 318.187 356.863 324.007 367.802 337.648C372.764 343.834 375.274 351.21 380.204 357.127C396.031 376.138 409.888 414.749 385.538 427.776C365.379 438.563 338.464 411.494 320.595 432.376C305.427 450.102 292.556 475.679 266.74 473.49C226.804 470.1 201.375 412.563 217.26 374.148C229.559 344.402 260.122 344.621 284.646 337.957C298.698 334.137 291.801 313.297 295.122 301.024C305.412 263.017 329.444 232.229 362.544 222.705L362.548 222.707Z" fill="url(#paint2_linear_21_3422)"/>
    <path d="M359.248 232.839C387.732 224.648 398.344 247.446 388.356 275.354C383.563 288.75 377.402 301.341 368.849 311.756C360.767 321.594 353.793 327.023 363.993 339.68C368.626 345.427 370.958 352.274 375.56 357.769C390.334 375.416 403.23 411.289 380.443 423.434C361.575 433.495 336.448 408.371 319.71 427.812C305.5 444.315 293.426 468.11 269.292 466.114C231.949 463.024 208.263 409.58 223.174 373.842C234.718 346.17 263.3 346.328 286.24 340.092C299.384 336.521 292.965 317.163 296.091 305.744C305.764 270.411 328.287 241.741 359.253 232.835L359.248 232.839Z" fill="url(#paint3_linear_21_3422)"/>
    <path d="M355.948 242.972C382.471 235.351 392.303 256.399 382.963 282.213C378.479 294.602 372.725 306.253 364.746 315.894C357.206 325.004 350.717 330.04 360.18 341.713C364.484 347.022 366.64 353.342 370.914 358.412C384.631 374.695 396.568 407.831 375.348 419.096C357.767 428.428 334.43 405.256 318.822 423.253C305.568 438.534 294.29 460.545 271.839 458.742C237.089 455.953 215.141 406.6 229.079 373.539C239.867 347.944 266.465 348.039 287.823 342.234C300.061 338.91 294.12 321.034 297.049 310.47C306.103 277.813 327.118 251.256 355.948 242.972Z" fill="url(#paint4_linear_21_3422)"/>
    <path d="M352.648 253.108C377.206 246.054 386.266 265.355 377.569 289.079C373.396 300.46 368.045 311.173 360.646 320.037C353.65 328.418 347.645 333.06 356.368 343.75C360.345 348.622 362.323 354.414 366.268 359.058C378.93 373.98 389.907 404.375 370.25 414.759C353.961 423.365 332.412 402.138 317.934 418.69C305.638 432.749 295.154 452.978 274.386 451.371C242.229 448.882 222.023 403.621 234.984 373.24C245.021 349.721 269.633 349.748 289.409 344.379C300.739 341.302 295.277 324.912 298.011 315.199C306.447 285.216 325.953 260.777 352.648 253.108Z" fill="url(#paint5_linear_21_3422)"/>
    <path d="M349.345 263.241C371.938 256.759 380.226 274.311 372.173 295.939C368.309 306.313 363.365 316.085 356.544 324.175C350.089 331.827 344.571 336.076 352.555 345.78C356.202 350.213 358.006 355.474 361.621 359.698C373.226 373.256 383.241 400.914 365.151 410.419C350.153 418.298 330.39 399.021 317.046 414.127C305.705 426.965 296.021 445.409 276.935 443.995C247.374 441.806 228.904 400.637 240.892 372.936C250.174 351.494 272.802 351.458 290.993 346.517C301.419 343.687 296.431 328.78 298.968 319.922C306.789 292.613 324.783 270.289 349.345 263.241Z" fill="url(#paint6_linear_21_3422)"/>
    <path d="M346.045 273.374C366.673 267.46 374.188 283.263 366.778 302.802C363.225 312.168 358.683 321.002 352.439 328.316C346.528 335.237 341.495 339.094 348.743 347.816C352.063 351.814 353.689 356.546 356.975 360.344C367.523 372.538 376.58 397.459 360.056 406.081C346.35 413.233 328.376 395.905 316.159 409.567C305.775 421.179 296.885 437.845 279.481 436.624C252.514 434.735 235.783 397.66 246.801 372.635C255.327 353.27 275.971 353.171 292.583 348.661C302.1 346.079 297.593 332.653 299.932 324.65C307.132 300.017 323.621 279.809 346.05 273.379L346.045 273.374Z" fill="url(#paint7_linear_21_3422)"/>
    <path d="M342.745 283.506C361.408 278.163 368.148 292.219 361.385 309.661C358.145 318.022 354.007 325.913 348.34 332.453C342.974 338.644 338.425 342.11 344.933 349.845C347.927 353.403 349.373 357.607 352.331 360.983C361.823 371.813 369.921 393.997 354.959 401.736C342.544 408.159 326.356 392.781 315.272 404.997C305.847 415.387 297.753 430.27 282.029 429.245C257.655 427.657 242.666 394.671 252.708 372.328C260.478 355.037 279.141 354.873 294.166 350.796C302.778 348.46 298.747 336.521 300.892 329.369C307.477 307.41 322.454 289.316 342.748 283.505L342.745 283.506Z" fill="url(#paint8_linear_21_3422)"/>
    <path d="M339.445 293.639C356.142 288.864 362.11 301.171 355.992 316.52C353.06 323.871 349.328 330.826 344.238 336.59C339.413 342.053 335.352 345.126 341.12 351.878C343.786 354.997 345.055 358.675 347.684 361.625C356.12 371.092 363.259 390.538 349.861 397.399C338.734 403.097 324.338 389.666 314.385 400.438C305.914 409.606 298.618 422.705 284.579 421.873C262.798 420.585 249.547 391.69 258.616 372.024C265.631 356.81 282.309 356.582 295.755 352.936C303.459 350.849 299.905 340.391 301.855 334.091C307.818 314.808 321.29 298.83 339.448 293.638L339.445 293.639Z" fill="url(#paint9_linear_21_3422)"/>
    <path d="M336.145 303.771C350.878 299.568 356.073 310.126 350.6 323.382C347.98 329.725 344.649 335.741 340.14 340.73C335.86 345.464 332.285 348.141 337.311 353.91C339.648 356.594 340.739 359.739 343.04 362.264C350.42 370.37 356.6 387.075 344.765 393.055C334.929 398.026 322.318 386.541 313.499 395.871C305.987 403.817 299.487 415.133 287.127 414.494C267.939 413.507 256.428 388.705 264.523 371.717C270.783 358.58 285.48 358.288 297.34 355.075C304.138 353.234 301.059 344.259 302.812 338.814C308.157 322.206 320.123 308.341 336.145 303.771Z" fill="url(#paint10_linear_21_3422)"/>
    <path d="M332.845 313.904C345.479 309.83 350.221 319.161 345.204 330.242C342.984 335.616 339.879 340.568 336.035 344.868C332.213 348.793 330.03 350.533 333.494 355.941C335.837 357.836 336.409 360.813 338.389 362.905C344.685 369.671 349.727 383.223 339.666 388.714C330.964 392.627 320.173 383.305 312.607 391.306C305.947 397.923 300.333 407.844 289.67 407.121C273.064 406.871 263.22 385.682 270.425 371.415C275.866 360.32 288.786 360.479 298.921 357.214C304.88 355.897 301.826 347.98 303.769 343.537C307.294 329.256 318.825 317.369 332.841 313.901L332.845 313.904Z" fill="url(#paint11_linear_21_3422)"/>
  </g>
  <defs>
    <filter id="filter0_f_21_3422" x="0" y="0" width="610.258" height="688.512" filterUnits="userSpaceOnUse" color-interpolation-filters="sRGB">
      <feFlood flood-opacity="0" result="BackgroundImageFix"/>
      <feBlend mode="normal" in="SourceGraphic" in2="BackgroundImageFix" result="shape"/>
      <feGaussianBlur stdDeviation="100" result="effect1_foregroundBlur_21_3422"/>
    </filter>
    <linearGradient id="paint0_linear_21_3422" x1="342.958" y1="469.859" x2="279.941" y2="225.291" gradientUnits="userSpaceOnUse">
      <stop stop-color="#8AD6AF"/>
      <stop offset="0.58" stop-color="#DCEAA2"/>
      <stop offset="1" stop-color="white"/>
    </linearGradient>
    <linearGradient id="paint1_linear_21_3422" x1="342.967" y1="469.834" x2="279.954" y2="225.283" gradientUnits="userSpaceOnUse">
      <stop stop-color="#7DD2A6"/>
      <stop offset="0.58" stop-color="#D8E898"/>
      <stop offset="1" stop-color="#FFFEE8"/>
    </linearGradient>
    <linearGradient id="paint2_linear_21_3422" x1="342.985" y1="469.836" x2="279.933" y2="225.309" gradientUnits="userSpaceOnUse">
      <stop stop-color="#71CD9E"/>
      <stop offset="0.58" stop-color="#D4E68E"/>
      <stop offset="1" stop-color="#FFFDD1"/>
    </linearGradient>
    <linearGradient id="paint3_linear_21_3422" x1="342.978" y1="469.841" x2="279.925" y2="225.314" gradientUnits="userSpaceOnUse">
      <stop stop-color="#64C995"/>
      <stop offset="0.58" stop-color="#D1E384"/>
      <stop offset="1" stop-color="#FFFBB9"/>
    </linearGradient>
    <linearGradient id="paint4_linear_21_3422" x1="342.992" y1="469.833" x2="279.902" y2="225.341" gradientUnits="userSpaceOnUse">
      <stop stop-color="#58C58D"/>
      <stop offset="0.58" stop-color="#CDE17A"/>
      <stop offset="1" stop-color="#FFFAA2"/>
    </linearGradient>
    <linearGradient id="paint5_linear_21_3422" x1="343.004" y1="469.805" x2="279.915" y2="225.325" gradientUnits="userSpaceOnUse">
      <stop stop-color="#4BC084"/>
      <stop offset="0.58" stop-color="#C9DF70"/>
      <stop offset="1" stop-color="#FFF98B"/>
    </linearGradient>
    <linearGradient id="paint6_linear_21_3422" x1="343.015" y1="469.806" x2="279.886" y2="225.359" gradientUnits="userSpaceOnUse">
      <stop stop-color="#3FBC7C"/>
      <stop offset="0.58" stop-color="#C5DD67"/>
      <stop offset="1" stop-color="#FFF874"/>
    </linearGradient>
    <linearGradient id="paint7_linear_21_3422" x1="343.014" y1="469.802" x2="279.886" y2="225.363" gradientUnits="userSpaceOnUse">
      <stop stop-color="#32B773"/>
      <stop offset="0.58" stop-color="#C1DB5D"/>
      <stop offset="1" stop-color="#FFF75D"/>
    </linearGradient>
    <linearGradient id="paint8_linear_21_3422" x1="343.03" y1="469.774" x2="279.901" y2="225.343" gradientUnits="userSpaceOnUse">
      <stop stop-color="#26B36B"/>
      <stop offset="0.58" stop-color="#BDD953"/>
      <stop offset="1" stop-color="#FFF646"/>
    </linearGradient>
    <linearGradient id="paint9_linear_21_3422" x1="343.036" y1="469.775" x2="279.865" y2="225.385" gradientUnits="userSpaceOnUse">
      <stop stop-color="#19AF62"/>
      <stop offset="0.58" stop-color="#BAD649"/>
      <stop offset="1" stop-color="#FFF42E"/>
    </linearGradient>
    <linearGradient id="paint10_linear_21_3422" x1="343.036" y1="469.798" x2="279.815" y2="225.432" gradientUnits="userSpaceOnUse">
      <stop stop-color="#0DAA5A"/>
      <stop offset="0.58" stop-color="#B6D43F"/>
      <stop offset="1" stop-color="#FFF317"/>
    </linearGradient>
    <linearGradient id="paint11_linear_21_3422" x1="319.829" y1="400.134" x2="299.733" y2="322.419" gradientUnits="userSpaceOnUse">
      <stop stop-color="#00A651"/>
      <stop offset="0.58" stop-color="#B2D235"/>
      <stop offset="1" stop-color="#FFF200"/>
    </linearGradient>
  </defs>
</svg>