<svg xmlns="http://www.w3.org/2000/svg" width="26" height="25" viewBox="0 0 26 25" fill="none">
  <path d="M7.69701 9.049C12.2914 6.96067 17.005 6.364 20.6447 7.13967C20.227 6.96067 19.8094 6.66234 19.5707 6.185C18.9144 4.99167 17.6017 4.27567 16.11 4.45467C15.5134 4.51433 14.9167 4.395 14.499 4.09667C13.962 3.73867 13.3057 3.5 12.53 3.5C11.7544 3.5 11.1577 3.73867 10.561 4.09667C10.1434 4.33533 9.54669 4.51433 8.95002 4.395C7.45835 4.216 6.14568 4.932 5.48934 6.12534C5.19101 6.722 4.65401 7.02034 4.17667 7.19934C2.98334 7.617 2.02867 8.691 1.84967 10.123C1.79 10.7793 1.37234 11.3163 1.13367 11.6147C0.358001 12.3903 0 13.2853 0 14.24V14.2997C1.969 12.271 4.59434 10.4213 7.69701 9.049Z" fill="url(#paint0_linear_2177_401)"/>
  <path d="M11.7544 11.734C15.6924 9.94396 19.69 9.28763 23.0314 9.58596C22.733 8.4523 21.8977 7.5573 20.8237 7.19929C20.764 7.19929 20.6447 7.13963 20.585 7.07996C17.005 6.36396 12.2914 6.96063 7.63735 8.9893C4.59434 10.4213 1.969 12.271 0 14.2996C0 16.1493 1.432 17.7006 3.22201 17.9393C5.25068 15.5526 8.17435 13.345 11.7544 11.734Z" fill="url(#paint1_linear_2177_401)"/>
  <path d="M23.8654 11.5548C23.5671 11.2565 23.2091 10.7195 23.1494 10.0631C23.1494 9.88414 23.0897 9.70514 23.0897 9.52614C19.6887 9.28747 15.6911 10.0035 11.7531 11.7338C8.17305 13.3448 5.24937 15.5525 3.2207 17.9391C3.3997 17.9391 3.5787 17.9988 3.7577 17.9988H9.12772C9.66472 17.9988 10.0824 18.4165 10.0824 18.9535V19.1921C10.0824 20.0275 9.24705 20.1468 9.24705 20.1468L4.89137 20.9225C4.71237 20.9225 4.59304 21.0418 4.59304 21.2208V21.7578H20.5241V21.2208C20.5241 21.0418 20.4047 20.9821 20.2257 20.9225L15.8104 20.1468C15.8104 20.1468 14.9751 20.0275 14.9751 19.1921V18.9535C14.9751 18.4165 15.3927 17.9988 15.8701 17.9988H21.2401C23.3284 17.9988 24.9991 16.3281 24.9991 14.2398C24.9991 13.2851 24.6411 12.3901 23.8654 11.5548Z" fill="#009143"/>
  <defs>
    <linearGradient id="paint0_linear_2177_401" x1="15.6517" y1="2.69641" x2="3.77489" y2="17.3631" gradientUnits="userSpaceOnUse">
      <stop stop-color="#6FBA2C"/>
      <stop offset="0.3125" stop-color="#30A938"/>
      <stop offset="0.7712" stop-color="#009641"/>
      <stop offset="1" stop-color="#009143"/>
    </linearGradient>
    <linearGradient id="paint1_linear_2177_401" x1="19.3739" y1="2.24505" x2="5.21161" y2="19.734" gradientUnits="userSpaceOnUse">
      <stop stop-color="#45B035"/>
      <stop offset="0.27" stop-color="#00A23D"/>
      <stop offset="0.5437" stop-color="#009841"/>
      <stop offset="0.7948" stop-color="#009243"/>
      <stop offset="1" stop-color="#009143"/>
    </linearGradient>
  </defs>
</svg>