<svg xmlns="http://www.w3.org/2000/svg" width="962" height="1096" viewBox="0 0 962 1096" fill="none">
  <g opacity="0.4" filter="url(#filter0_f_21_3325)">
    <path d="M590.517 304.194C648.828 284.807 672.695 335.685 651.298 394.07C641.909 422.425 628.307 448.345 611.131 470.618C593.988 490.895 584.103 499.803 601.296 529.433C612.603 540.028 615.817 556.083 625.457 567.672C656.125 605.129 682.197 678.665 636.166 706.127C596.215 725.403 544.058 673.397 510.166 714.797C480.256 748.951 455.833 800.997 405.871 795.065C328.201 790.535 278.297 675.159 309.348 600.149C332.734 541.793 393.158 545.117 439.932 529.597C467.544 523.693 451.821 480.716 460.076 457.291C473.923 381.494 525.628 320.067 590.512 304.195L590.517 304.194Z" fill="url(#paint0_linear_21_3325)"/>
    <path d="M584.849 321.597C640.522 305.571 661.4 350.735 642.037 405.856C632.732 432.326 620.772 457.182 604.092 477.728C588.342 497.135 574.701 507.804 594.759 532.922C603.839 544.297 608.46 557.873 617.488 568.774C646.486 603.768 671.937 674.778 627.425 698.668C590.583 718.443 541.288 668.603 508.652 706.957C480.956 739.506 457.487 786.497 410.255 782.396C337.209 776.057 290.548 670.21 319.501 599.626C341.923 544.968 397.824 545.455 442.664 533.266C468.353 526.283 455.692 487.937 461.736 465.399C480.467 395.527 524.333 339.018 584.855 321.596L584.849 321.597Z" fill="url(#paint1_linear_21_3325)"/>
    <path d="M579.181 339C631.478 323.949 651.03 366.11 632.769 417.638C624 442.377 612.73 465.62 597.041 484.835C582.226 502.99 569.418 512.986 588.205 536.415C596.727 547.041 601.038 559.709 609.506 569.872C636.689 602.524 660.489 668.839 618.668 691.213C584.044 709.74 537.816 663.248 507.125 699.115C481.074 729.559 458.967 773.489 414.627 769.73C346.035 763.907 302.36 665.085 329.643 599.105C350.768 548.015 403.26 548.393 445.382 536.946C469.516 530.386 457.671 494.593 463.374 473.513C481.048 408.233 522.323 355.355 579.174 338.996L579.181 339Z" fill="url(#paint2_linear_21_3325)"/>
    <path d="M573.513 356.403C622.436 342.333 640.661 381.491 623.508 429.424C615.275 452.432 604.693 474.058 590.003 491.945C576.121 508.843 564.145 518.166 581.662 539.906C589.62 549.777 593.626 561.537 601.53 570.975C626.905 601.283 649.053 662.897 609.916 683.757C577.51 701.036 534.353 657.886 505.605 691.276C481.199 719.621 460.462 760.488 419.011 757.061C354.872 751.754 314.191 659.962 339.801 598.581C359.628 551.053 408.719 551.324 448.12 540.614C470.694 534.48 459.67 501.232 465.039 481.619C481.652 420.934 520.337 371.692 573.523 356.395L573.513 356.403Z" fill="url(#paint3_linear_21_3325)"/>
    <path d="M567.845 373.806C613.399 360.716 630.286 396.868 614.245 441.204C606.542 462.483 596.661 482.494 582.957 499.052C570.006 514.698 558.861 523.349 575.114 543.398C582.507 552.515 586.209 563.371 593.55 572.079C617.11 600.045 637.611 656.957 601.165 676.306C570.97 692.334 530.888 652.536 504.081 683.445C481.316 709.692 461.946 747.496 423.385 744.4C363.7 739.609 326.004 654.843 349.942 598.06C368.472 554.1 414.155 554.262 450.837 544.293C471.857 538.583 461.654 507.881 466.684 489.737C482.235 433.646 518.328 388.034 567.845 373.806Z" fill="url(#paint4_linear_21_3325)"/>
    <path d="M562.178 391.215C604.357 379.1 619.917 412.249 604.98 452.997C597.813 472.544 588.622 490.943 575.914 506.169C563.898 520.563 553.584 528.535 568.567 546.895C575.397 555.264 578.794 565.211 585.57 573.188C607.317 598.818 626.171 651.022 592.409 668.857C564.432 683.637 527.421 647.18 502.555 675.608C481.436 699.755 463.429 734.499 427.759 731.739C372.528 727.465 337.825 649.728 360.085 597.545C377.324 557.151 419.597 557.198 453.562 547.976C473.022 542.692 463.64 514.541 468.336 497.859C482.825 446.362 516.328 404.387 562.178 391.215Z" fill="url(#paint5_linear_21_3325)"/>
    <path d="M556.505 408.619C595.309 397.486 609.543 427.632 595.712 464.779C589.075 482.597 580.585 499.381 568.869 513.275C557.783 526.419 548.306 533.716 562.017 550.382C568.282 557.997 571.381 567.033 577.588 574.287C597.52 597.574 614.722 645.078 583.651 661.402C557.893 674.935 523.949 641.826 501.03 667.771C481.551 689.82 464.918 721.5 432.137 719.071C381.365 715.312 349.642 644.602 370.233 597.024C386.174 560.196 425.038 560.134 456.283 551.649C474.189 546.788 465.622 521.184 469.979 505.971C483.412 459.067 514.318 420.724 556.505 408.619Z" fill="url(#paint6_linear_21_3325)"/>
    <path d="M550.837 426.022C586.265 415.865 599.173 443.007 586.446 476.567C580.344 492.653 572.544 507.825 561.819 520.388C551.667 532.274 543.022 538.899 555.47 553.879C561.172 560.746 563.966 568.873 569.609 575.396C587.727 596.341 603.282 639.144 574.901 653.952C551.36 666.237 520.489 636.474 499.506 659.94C481.671 679.884 466.403 708.508 436.511 706.411C390.193 703.167 361.457 639.488 380.381 596.507C395.025 563.247 430.482 563.076 459.013 555.331C475.359 550.896 467.618 527.836 471.637 514.091C484.002 471.783 512.323 437.074 550.845 426.032L550.837 426.022Z" fill="url(#paint7_linear_21_3325)"/>
    <path d="M545.169 443.425C577.223 434.249 588.799 458.39 577.183 488.347C571.619 502.708 564.512 516.261 554.779 527.492C545.562 538.127 537.749 544.078 548.926 557.364C554.069 563.476 556.552 570.695 561.632 576.494C577.935 595.096 591.844 633.196 566.147 646.49C544.823 657.522 517.019 631.108 497.983 652.091C481.794 669.935 467.894 695.497 440.887 693.738C399.023 691.01 373.279 634.355 390.527 595.98C403.873 566.282 435.926 566 461.733 558.998C476.525 554.986 469.601 534.479 473.284 522.196C484.594 484.481 510.317 453.404 545.174 443.424L545.169 443.425Z" fill="url(#paint8_linear_21_3325)"/>
    <path d="M539.501 460.828C568.179 452.627 578.428 473.765 567.921 500.128C562.885 512.753 556.475 524.698 547.733 534.599C539.446 543.982 532.47 549.26 542.378 560.856C546.956 566.214 549.136 572.53 553.651 577.598C568.14 593.857 580.402 627.256 557.391 639.041C538.28 648.826 513.554 625.758 496.459 644.259C481.911 660.006 469.378 682.505 445.267 681.076C407.856 678.864 385.098 629.234 400.674 595.458C412.723 569.327 441.368 568.936 464.462 562.674C477.693 559.088 471.59 541.127 474.939 530.306C485.181 497.186 508.32 469.744 539.506 460.827L539.501 460.828Z" fill="url(#paint9_linear_21_3325)"/>
    <path d="M533.833 478.231C559.137 471.011 568.06 489.146 558.66 511.914C554.16 522.808 548.439 533.141 540.695 541.709C533.343 549.84 527.203 554.438 535.835 564.347C539.85 568.956 541.724 574.357 545.675 578.695C558.35 592.617 568.965 621.309 548.638 631.579C531.744 640.117 510.084 620.391 494.937 636.416C482.035 650.063 470.871 669.499 449.643 668.402C416.687 666.707 396.916 624.108 410.819 594.931C421.571 572.368 446.814 571.865 467.183 566.346C478.86 563.185 473.572 547.77 476.582 538.418C485.763 509.893 506.315 486.08 533.833 478.231Z" fill="url(#paint10_linear_21_3325)"/>
    <path d="M528.164 495.634C549.864 488.638 558.008 504.663 549.392 523.696C545.58 532.925 540.247 541.43 533.644 548.816C527.08 555.557 523.33 558.546 529.28 567.835C533.304 571.089 534.287 576.203 537.687 579.795C548.5 591.417 557.16 614.692 539.88 624.124C524.934 630.844 506.4 614.833 493.405 628.575C481.966 639.94 472.325 656.979 454.01 655.738C425.489 655.309 408.581 618.916 420.955 594.412C430.301 575.356 452.492 575.628 469.899 570.02C480.133 567.76 474.89 554.162 478.226 546.53C484.28 522.002 504.085 501.586 528.158 495.63L528.164 495.634Z" fill="url(#paint11_linear_21_3325)"/>
  </g>
  <defs>
    <filter id="filter0_f_21_3325" x="0" y="0" width="961.127" height="1095.53" filterUnits="userSpaceOnUse" color-interpolation-filters="sRGB">
      <feFlood flood-opacity="0" result="BackgroundImageFix"/>
      <feBlend mode="normal" in="SourceGraphic" in2="BackgroundImageFix" result="shape"/>
      <feGaussianBlur stdDeviation="150" result="effect1_foregroundBlur_21_3325"/>
    </filter>
    <linearGradient id="paint0_linear_21_3325" x1="545.534" y1="763.493" x2="437.3" y2="343.438" gradientUnits="userSpaceOnUse">
      <stop stop-color="#8AD6AF"/>
      <stop offset="0.58" stop-color="#DCEAA2"/>
      <stop offset="1" stop-color="white"/>
    </linearGradient>
    <linearGradient id="paint1_linear_21_3325" x1="545.55" y1="763.45" x2="437.323" y2="343.425" gradientUnits="userSpaceOnUse">
      <stop stop-color="#7DD2A6"/>
      <stop offset="0.58" stop-color="#D8E898"/>
      <stop offset="1" stop-color="#FFFEE8"/>
    </linearGradient>
    <linearGradient id="paint2_linear_21_3325" x1="545.582" y1="763.454" x2="437.286" y2="343.469" gradientUnits="userSpaceOnUse">
      <stop stop-color="#71CD9E"/>
      <stop offset="0.58" stop-color="#D4E68E"/>
      <stop offset="1" stop-color="#FFFDD1"/>
    </linearGradient>
    <linearGradient id="paint3_linear_21_3325" x1="545.568" y1="763.461" x2="437.273" y2="343.478" gradientUnits="userSpaceOnUse">
      <stop stop-color="#64C995"/>
      <stop offset="0.58" stop-color="#D1E384"/>
      <stop offset="1" stop-color="#FFFBB9"/>
    </linearGradient>
    <linearGradient id="paint4_linear_21_3325" x1="545.593" y1="763.449" x2="437.233" y2="343.525" gradientUnits="userSpaceOnUse">
      <stop stop-color="#58C58D"/>
      <stop offset="0.58" stop-color="#CDE17A"/>
      <stop offset="1" stop-color="#FFFAA2"/>
    </linearGradient>
    <linearGradient id="paint5_linear_21_3325" x1="545.613" y1="763.4" x2="437.256" y2="343.496" gradientUnits="userSpaceOnUse">
      <stop stop-color="#4BC084"/>
      <stop offset="0.58" stop-color="#C9DF70"/>
      <stop offset="1" stop-color="#FFF98B"/>
    </linearGradient>
    <linearGradient id="paint6_linear_21_3325" x1="545.632" y1="763.403" x2="437.206" y2="343.554" gradientUnits="userSpaceOnUse">
      <stop stop-color="#3FBC7C"/>
      <stop offset="0.58" stop-color="#C5DD67"/>
      <stop offset="1" stop-color="#FFF874"/>
    </linearGradient>
    <linearGradient id="paint7_linear_21_3325" x1="545.631" y1="763.395" x2="437.206" y2="343.561" gradientUnits="userSpaceOnUse">
      <stop stop-color="#32B773"/>
      <stop offset="0.58" stop-color="#C1DB5D"/>
      <stop offset="1" stop-color="#FFF75D"/>
    </linearGradient>
    <linearGradient id="paint8_linear_21_3325" x1="545.658" y1="763.347" x2="437.232" y2="343.527" gradientUnits="userSpaceOnUse">
      <stop stop-color="#26B36B"/>
      <stop offset="0.58" stop-color="#BDD953"/>
      <stop offset="1" stop-color="#FFF646"/>
    </linearGradient>
    <linearGradient id="paint9_linear_21_3325" x1="545.669" y1="763.35" x2="437.17" y2="343.599" gradientUnits="userSpaceOnUse">
      <stop stop-color="#19AF62"/>
      <stop offset="0.58" stop-color="#BAD649"/>
      <stop offset="1" stop-color="#FFF42E"/>
    </linearGradient>
    <linearGradient id="paint10_linear_21_3325" x1="545.668" y1="763.389" x2="437.083" y2="343.681" gradientUnits="userSpaceOnUse">
      <stop stop-color="#0DAA5A"/>
      <stop offset="0.58" stop-color="#B6D43F"/>
      <stop offset="1" stop-color="#FFF317"/>
    </linearGradient>
    <linearGradient id="paint11_linear_21_3325" x1="505.81" y1="643.738" x2="471.293" y2="510.26" gradientUnits="userSpaceOnUse">
      <stop stop-color="#00A651"/>
      <stop offset="0.58" stop-color="#B2D235"/>
      <stop offset="1" stop-color="#FFF200"/>
    </linearGradient>
  </defs>
</svg>